<?xml version="1.0" encoding="utf-8"?>
<!-- Generator: Adobe Illustrator 16.0.0, SVG Export Plug-In . SVG Version: 6.00 Build 0)  -->
<!DOCTYPE svg PUBLIC "-//W3C//DTD SVG 1.1//EN" "http://www.w3.org/Graphics/SVG/1.1/DTD/svg11.dtd">
<svg version="1.1" id="图层_1" xmlns="http://www.w3.org/2000/svg" xmlns:xlink="http://www.w3.org/1999/xlink" x="0px" y="0px"
	 width="1000px" height="1000px" viewBox="0 0 1000 1000" enable-background="new 0 0 1000 1000" xml:space="preserve">
<g>
	<g opacity="0.75">
		<polygon opacity="0.33" fill="#7295BA" points="793.105,510.902 85.756,703.074 85.756,703.074 85.297,684.525 85.297,684.525 
			793.246,496.17 793.246,496.17 		"/>
		<g>
			<polygon opacity="0.6" fill="#D4DDE8" points="215.406,788.043 959,568.463 793.246,496.17 85.297,684.525 			"/>
			<polygon opacity="0.36" fill="#213164" points="215.808,808 215.406,788.043 85.297,684.525 85.756,703.074 			"/>
		</g>
	</g>
	<polygon opacity="0.36" fill="#7295BA" points="958.758,584.074 215.808,808 215.808,808 215.406,788.043 215.406,788.043 
		959,568.463 959,568.463 	"/>
</g>
<g>
	<g>
		<text transform="matrix(1.0761 -0.1844 0.0015 1 35.623 370.749)" fill="#7295BA" font-family="'Roboto-Light'" font-size="30">100%</text>
	</g>
	<g>
		<text transform="matrix(1.0761 -0.1844 0.0015 1 51.5786 436.7485)" fill="#7295BA" font-family="'Roboto-Light'" font-size="30">80%</text>
	</g>
	<g>
		
			<text transform="matrix(1.1288 -0.2658 0.0099 0.9999 52.1821 509.334)" fill="#7295BA" font-family="'Roboto-Light'" font-size="29.2611">60%</text>
	</g>
	<g>
		
			<text transform="matrix(1.1282 -0.2389 0.0142 0.9999 55.4683 575.4707)" fill="#7295BA" font-family="'Roboto-Light'" font-size="29.2602">40%</text>
	</g>
	<g>
		
			<text transform="matrix(1.1896 -0.3025 0.0388 0.9992 55.7007 646.8711)" fill="#7295BA" font-family="'Roboto-Light'" font-size="28.4078">20%</text>
	</g>
	<g>
		
			<text transform="matrix(1.1896 -0.3025 0.0388 0.9992 79.7007 687.8711)" fill="#7295BA" font-family="'Roboto-Light'" font-size="28.4078">0%</text>
	</g>
</g>
<g>
	<g>
		<g>
			<g>
				
					<polyline fill="none" stroke="#7295BA" stroke-width="1.4173" stroke-linecap="round" stroke-linejoin="round" stroke-miterlimit="10" points="
					746.75,230.075 746.75,531.695 131.422,686.742 				"/>
				<g>
					
						<line fill="none" stroke="#7295BA" stroke-width="0.7087" stroke-miterlimit="10" x1="747.758" y1="474.838" x2="133.434" y2="626.844"/>
					
						<line fill="none" stroke="#7295BA" stroke-width="0.7087" stroke-miterlimit="10" x1="744.742" y1="358.095" x2="131.453" y2="492.126"/>
					
						<line fill="none" stroke="#7295BA" stroke-width="0.7087" stroke-miterlimit="10" x1="746.75" y1="298.763" x2="132.764" y2="417.422"/>
					
						<line fill="none" stroke="#7295BA" stroke-width="0.7087" stroke-miterlimit="10" x1="747.758" y1="236.31" x2="132.764" y2="351.213"/>
				</g>
			</g>
			<g>
				
					<line fill="none" stroke="#7295BA" stroke-width="0.7087" stroke-miterlimit="10" x1="206.757" y1="326.075" x2="206.757" y2="667.074"/>
				
					<line fill="none" stroke="#7295BA" stroke-width="0.7087" stroke-miterlimit="10" x1="286.757" y1="312.075" x2="286.757" y2="648.074"/>
				
					<line fill="none" stroke="#7295BA" stroke-width="0.7087" stroke-miterlimit="10" x1="366.757" y1="296.075" x2="366.757" y2="629.074"/>
				
					<line fill="none" stroke="#7295BA" stroke-width="0.7087" stroke-miterlimit="10" x1="446.757" y1="280.075" x2="446.757" y2="609.074"/>
				
					<line fill="none" stroke="#7295BA" stroke-width="0.7087" stroke-miterlimit="10" x1="526.758" y1="264.075" x2="526.758" y2="605.074"/>
				
					<line fill="none" stroke="#7295BA" stroke-width="0.7087" stroke-miterlimit="10" x1="606.758" y1="248.075" x2="606.758" y2="589.074"/>
				
					<line fill="none" stroke="#7295BA" stroke-width="0.7087" stroke-miterlimit="10" x1="686.758" y1="238.075" x2="686.758" y2="579.074"/>
			</g>
		</g>
		
			<line fill="none" stroke="#7295BA" stroke-width="0.7087" stroke-miterlimit="10" x1="133.453" y1="558.126" x2="746.453" y2="414.126"/>
	</g>
	
		<line fill="none" stroke="#7295BA" stroke-width="1.4173" stroke-linecap="round" stroke-linejoin="round" stroke-miterlimit="10" x1="132.756" y1="342.075" x2="132.756" y2="686.742"/>
</g>
<line fill="none" stroke="#213164" stroke-dasharray="5.6693" x1="830.27" y1="447.375" x2="830.27" y2="780.711"/>
<line fill="none" stroke="#7295BA" stroke-width="1.4173" stroke-dasharray="5.6693" x1="786.27" y1="373.376" x2="786.27" y2="718.711"/>
<line fill="none" stroke="#46BEA6" stroke-dasharray="5.6693" x1="728.27" y1="187.126" x2="728.27" y2="531.126"/>
<linearGradient id="SVGID_1_" gradientUnits="userSpaceOnUse" x1="733.6748" y1="434.4141" x2="-289.276" y2="716.4022">
	<stop  offset="0.1593" style="stop-color:#46BEA6"/>
	<stop  offset="0.2461" style="stop-color:#63C1AF"/>
	<stop  offset="0.5365" style="stop-color:#A4D0CD"/>
	<stop  offset="0.7502" style="stop-color:#C7DAE1"/>
	<stop  offset="0.8626" style="stop-color:#D4DDE8"/>
</linearGradient>
<path opacity="0.8" fill="url(#SVGID_1_)" d="M143.756,708.074l586.001-176V327.075c0,0-17-4-27,13s-8,39-25,48
	s-28,25.999-32,45.999s-10,45-21,44s-20-23-22-30s-9-24-14-13s-5,15-17,24s-15,28-16,40s-6,25-20,10s-30-19-41,12
	s-14.621,38.23-34,35c-12-2-28,3-46,26c-9.164,11.707-35-1-49,21s-23.547,8.34-37,20c-30,26-41,7-73,31c-25.109,18.832-42,20-57,21
	S143.756,708.074,143.756,708.074z"/>
<path opacity="0.7" fill="none" stroke="#D4DDE8" stroke-width="2.8347" stroke-linecap="round" stroke-linejoin="round" stroke-miterlimit="10" d="
	M729.758,327.075c0,0-17-4-27,13s-8,39-25,48s-28,25.999-32,45.999s-10,45-21,44s-20-23-22-30s-9-24-14-13s-5,15-17,24s-15,28-16,40
	s-6,25-20,10s-30-19-41,12s-14.621,38.23-34,35c-12-2-28,3-46,26c-9.164,11.707-35-1-49,21s-23.547,8.34-37,20c-30,26-41,7-73,31
	c-25.109,18.832-42,20-57,21s-55.001,33-55.001,33"/>
<linearGradient id="SVGID_2_" gradientUnits="userSpaceOnUse" x1="117.3438" y1="571.21" x2="567.149" y2="539.6121">
	<stop  offset="0" style="stop-color:#95C0DD"/>
	<stop  offset="0.6868" style="stop-color:#95C0DD"/>
	<stop  offset="1" style="stop-color:#7295BA"/>
</linearGradient>
<path opacity="0.9" fill="url(#SVGID_2_)" d="M177.757,734.074l609-185V357.075c0,0-10.445,5.937-16,23
	c-3.867,11.877-8.309,40.972-12,49.999c-9,22-15,14-18,3s-16-30-23-9s-9,60-32,58s-20-7-34,9s-32,3-40,24s-15,14-29,11s-15-4-40,15
	s-48,2-65,29c-17,27-29,19-50,28s-34,27-49,25s-29,1-44,22c-6.484,9.082-28.332,34.297-76,48
	C178.757,716.074,177.757,734.074,177.757,734.074z"/>
<path opacity="0.7" fill="none" stroke="#D4DDE8" stroke-width="2.8347" stroke-linecap="round" stroke-linejoin="round" stroke-miterlimit="10" d="
	M787.09,357.075c0,0-10.445,5.937-16,23c-3.863,11.877-8.305,40.972-12,49.999c-9,22-15,14-18,3s-16-30-23-9s-9,60-32,58s-20-7-34,9
	s-32,3-40,24s-15,14-29,11s-15-4-40,15s-48,2-65,29c-17,27-29,19-50,28s-34,27-49,25s-29,1-44,22c-6.484,9.082-28.332,34.297-76,48
	c-80,23-81,41-81,41"/>
<linearGradient id="SVGID_3_" gradientUnits="userSpaceOnUse" x1="694.7803" y1="564.1875" x2="-111.725" y2="740.0134">
	<stop  offset="0" style="stop-color:#213164"/>
	<stop  offset="0.978" style="stop-color:#7295BA"/>
</linearGradient>
<path opacity="0.7" fill="url(#SVGID_3_)" d="M831.758,444.074v131l-629,187c0,0,32-37,74-45c0,0,55-2,87-20
	c15.711-8.836,54-38,77-42s30-22,56-34c26-12,22-30,35-37s22,36,40,15c0,0,10-23,21-24s12,13,26,2s14.668-39.332,30.668-44.332
	s13.332,27.332,27.332,25.332s8.688-28.812,30-23c22,6,29-15,40-25s19.332-16,30-10c10.691,6.016,20.031-30.164,32-45
	C817.16,444.656,831.758,444.074,831.758,444.074z"/>
<path opacity="0.7" fill="none" stroke="#D4DDE8" stroke-width="2.8347" stroke-linecap="round" stroke-linejoin="round" stroke-miterlimit="10" d="
	M202.757,762.074c0,0,32-37,74-45c0,0,55-2,87-20c15.711-8.836,54-38,77-42s30-22,56-34c26-12,22-30,35-37s22,36,40,15
	c0,0,10-23,21-24s12,13,26,2s14.668-39.332,30.668-44.332s13.332,27.332,27.332,25.332s8.688-28.812,30-23c22,6,29-15,40-25
	s19.332-16,30-10c10.691,6.016,20.031-30.164,32-45c8.402-10.418,23-11,23-11"/>
</svg>
